<svg id="visual" viewBox="0 0 675 900" width="675" height="900" xmlns="http://www.w3.org/2000/svg" xmlns:xlink="http://www.w3.org/1999/xlink" version="1.1"><rect x="0" y="0" width="675" height="900" fill="#eaeaea"></rect><path d="M0 776L96 776L96 708L193 708L193 634L289 634L289 666L386 666L386 763L482 763L482 572L579 572L579 711L675 711L675 597L675 901L675 901L579 901L579 901L482 901L482 901L386 901L386 901L289 901L289 901L193 901L193 901L96 901L96 901L0 901Z" fill="#ff8a8a" stroke-linecap="square" stroke-linejoin="miter"></path></svg>