<svg id="visual" viewBox="0 0 900 600" width="900" height="600" xmlns="http://www.w3.org/2000/svg" xmlns:xlink="http://www.w3.org/1999/xlink" version="1.1"><rect x="0" y="0" width="900" height="600" fill="#eaeaea"></rect><path d="M0 517L129 517L129 472L257 472L257 422L386 422L386 444L514 444L514 508L643 508L643 381L771 381L771 474L900 474L900 398L900 601L900 601L771 601L771 601L643 601L643 601L514 601L514 601L386 601L386 601L257 601L257 601L129 601L129 601L0 601Z" fill="#ff8a8a" stroke-linecap="square" stroke-linejoin="miter"></path></svg>